<svg xmlns="http://www.w3.org/2000/svg" width="80" height="68" viewBox="0 0 80 68">
  <g id="Cited_600_" data-name="Cited 600+" transform="translate(14844 -2138)">
    <rect id="矩形_9016" data-name="矩形 9016" width="80" height="68" transform="translate(-14844 2138)" fill="none"/>
    <g id="组_38601" data-name="组 38601" transform="translate(-14838 2141)">
      <path id="路径_102" data-name="路径 102" d="M477.527,2261.575l14.025,14.025-6.908,6.908L470.539,2268.4Z" transform="translate(-459.996 -2237.99)" fill="none" stroke="#fff" stroke-linejoin="round" stroke-width="3"/>
      <path id="路径_104" data-name="路径 104" d="M477.527,2261.575l14.025,14.025-6.908,6.908L470.539,2268.4Z" transform="translate(-437.154 -2261.575)" fill="none" stroke="#fff" stroke-linejoin="round" stroke-width="3"/>
      <path id="路径_103" data-name="路径 103" d="M480.848,2263.312l15.331-15.489,9.641,9.167-15.173,15.963Z" transform="translate(-460.471 -2237.356)" fill="none" stroke="#fff" stroke-width="3"/>
      <g id="矩形_56" data-name="矩形 56" transform="translate(40.789 23.585) rotate(45)" fill="none" stroke="#fff" stroke-width="3">
        <path d="M0,0H33.6a4.551,4.551,0,0,1,4.551,4.551v0A4.551,4.551,0,0,1,33.6,9.1H0a0,0,0,0,1,0,0V0A0,0,0,0,1,0,0Z" stroke="none"/>
        <path d="M1.5,1.5H33.6a3.051,3.051,0,0,1,3.051,3.051v0A3.051,3.051,0,0,1,33.6,7.6H1.5a0,0,0,0,1,0,0V1.5A0,0,0,0,1,1.5,1.5Z" fill="none"/>
      </g>
      <path id="路径_105" data-name="路径 105" d="M464.509,2293.479h40.648l5.39,8.268h-51.06Z" transform="translate(-459.486 -2239.462)" fill="none" stroke="#fff" stroke-linejoin="round" stroke-width="3"/>
    </g>
  </g>
</svg>
