<svg xmlns="http://www.w3.org/2000/svg" width="80" height="68" viewBox="0 0 80 68">
  <g id="The_global_initiative" data-name="The global initiative" transform="translate(14832 -2132)">
    <rect id="矩形_9015" data-name="矩形 9015" width="80" height="68" transform="translate(-14832 2132)" fill="none"/>
    <path id="路径_51109" data-name="路径 51109" d="M95.594,117.233h2.028a31.28,31.28,0,0,1,10.3,2.171,30.543,30.543,0,0,1,19.214,27.8V148.3a30.544,30.544,0,0,1-23.968,29.263,34.439,34.439,0,0,1-5.531.712H95.6a32.533,32.533,0,0,1-7.208-1.125,30.59,30.59,0,0,1-20.823-19.994,31.1,31.1,0,0,1-1.481-8.854v-1.091a30.541,30.541,0,0,1,18.05-27.31,31.07,31.07,0,0,1,11.452-2.665Zm-5.826,6.51a27.887,27.887,0,0,0-4.221,8.221c1.439.361,2.916.519,4.38.739,1.816.187,3.636.353,5.464.367q0-6.64,0-13.281a10.128,10.128,0,0,0-5.621,3.953Zm8.066,9.327a51.939,51.939,0,0,0,7.38-.645,21.623,21.623,0,0,0,2.464-.463,25.516,25.516,0,0,0-5.279-9.433,9.041,9.041,0,0,0-4.561-2.74c-.007,4.427,0,8.853,0,13.28ZM87.356,121.242a28.089,28.089,0,0,0-11.351,7.446,32.758,32.758,0,0,0,7.175,2.717,27.065,27.065,0,0,1,6.039-10.716,14.938,14.938,0,0,0-1.862.553Zm16.638-.571a19.738,19.738,0,0,1,1.631,1.863,30.726,30.726,0,0,1,4.425,8.878,34.415,34.415,0,0,0,7.176-2.717,27.914,27.914,0,0,0-13.232-8.025ZM74.378,130.6a28.1,28.1,0,0,0-5.812,15.937q6.1-.011,12.2,0a54.828,54.828,0,0,1,1.714-12.778,36.045,36.045,0,0,1-8.106-3.157Zm36.364,3.157a54.761,54.761,0,0,1,1.713,12.777q6.105,0,12.211,0a28.149,28.149,0,0,0-5.823-15.936,35.879,35.879,0,0,1-8.1,3.159ZM83.208,146.521c4.061.021,8.122,0,12.182.01V135.511a53.889,53.889,0,0,1-10.528-1.19,52.325,52.325,0,0,0-1.654,12.2ZM97.834,135.51q0,5.511,0,11.02c4.061-.007,8.121.013,12.182-.011a52.39,52.39,0,0,0-1.655-12.2,53.553,53.553,0,0,1-10.528,1.191ZM68.563,148.973a28.13,28.13,0,0,0,5.816,15.937,36.1,36.1,0,0,1,8.1-3.159,55.094,55.094,0,0,1-1.717-12.778q-6.1,0-12.2,0Zm14.646.01a51.813,51.813,0,0,0,1.658,12.206,53.032,53.032,0,0,1,10.521-1.194q0-5.509,0-11.02c-4.061.006-8.121-.011-12.181.008Zm14.625-.008v11.019a54.19,54.19,0,0,1,10.532,1.189A51.334,51.334,0,0,0,110,148.968c-4.056.014-8.112,0-12.168.006Zm14.619,0a54.624,54.624,0,0,1-1.711,12.777,35.786,35.786,0,0,1,8.1,3.158,28.145,28.145,0,0,0,5.821-15.934q-6.105,0-12.212,0Zm-26.9,14.56a25.359,25.359,0,0,0,5.281,9.445,9.022,9.022,0,0,0,4.559,2.734q.006-6.638,0-13.278a51.5,51.5,0,0,0-9.842,1.1Zm12.285-1.1q0,6.64,0,13.281a10.116,10.116,0,0,0,5.613-3.945,27.707,27.707,0,0,0,4.228-8.235c-1.482-.358-3-.531-4.5-.749-1.776-.173-3.554-.341-5.34-.352ZM76,166.811a27.866,27.866,0,0,0,13.228,8.02A27.106,27.106,0,0,1,83.181,164.1,33.644,33.644,0,0,0,76,166.811Zm34.048-2.714a27.2,27.2,0,0,1-6.058,10.743,27.98,27.98,0,0,0,13.229-8.022,33.053,33.053,0,0,0-7.171-2.721Z" transform="translate(-14888.592 2018.267)" fill="#fff" stroke="#fff" stroke-width="0.4"/>
  </g>
</svg>
